HIERARCHY
ROOT Hips
{
	OFFSET -3.958830 18.904000 13.208200
	CHANNELS 6 Xposition Yposition Zposition Zrotation Yrotation Xrotation 
	JOINT LHipJoint
	{
		OFFSET 0.000000 0.000000 0.000000
		CHANNELS 3 Zrotation Yrotation Xrotation
		JOINT LeftUpLeg
		{
			OFFSET 1.800000 -1.400000 0.085000
			CHANNELS 3 Zrotation Yrotation Xrotation
			JOINT LeftLeg
			{
				OFFSET 2.215000 -6.000000 0.000000
				CHANNELS 3 Zrotation Yrotation Xrotation
				JOINT LeftFoot
				{
					OFFSET 2.500000 -6.900000 0.000000
					CHANNELS 3 Zrotation Yrotation Xrotation
					JOINT LeftToeBase
					{
						OFFSET 0.200000 -0.500000 1.950000
						CHANNELS 3 Zrotation Yrotation Xrotation
						End Site
						{
							OFFSET 0.000000 0.000000 0.000000
						}
					}
				}
			}
		}
	}
	JOINT RHipJoint
	{
		OFFSET 0.000000 0.000000 0.000000
		CHANNELS 3 Zrotation Yrotation Xrotation
		JOINT RightUpLeg
		{
			OFFSET -1.800000 -1.400000 0.085000
			CHANNELS 3 Zrotation Yrotation Xrotation
			JOINT RightLeg
			{
				OFFSET -2.215000 -6.000000 0.000000
				CHANNELS 3 Zrotation Yrotation Xrotation
				JOINT RightFoot
				{
					OFFSET -2.500000 -6.900000 0.000000
					CHANNELS 3 Zrotation Yrotation Xrotation
					JOINT RightToeBase
					{
						OFFSET -0.200000 -0.500000 1.950000
						CHANNELS 3 Zrotation Yrotation Xrotation
						End Site
						{
							OFFSET 0.000000 0.000000 0.000000
						}
					}
				}
			}
		}
	}
	JOINT LowerBack
	{
		OFFSET 0.000000 0.000000 0.000000
		CHANNELS 3 Zrotation Yrotation Xrotation
		JOINT Spine
		{
			OFFSET -0.087000 1.940000 -0.288900
			CHANNELS 3 Zrotation Yrotation Xrotation
			JOINT Spine1
			{
				OFFSET 0.000000 1.950000 0.060000
				CHANNELS 3 Zrotation Yrotation Xrotation
				JOINT Neck
				{
					OFFSET 0.000000 0.000000 0.000000
					CHANNELS 3 Zrotation Yrotation Xrotation
					JOINT Neck1
					{
						OFFSET 0.000000 1.600000 0.340000
						CHANNELS 3 Zrotation Yrotation Xrotation
						JOINT Head
						{
							OFFSET 0.000000 1.667000 -0.240000
							CHANNELS 3 Zrotation Yrotation Xrotation
							End Site
							{
								OFFSET 0.000000 0.000000 0.000000
							}
						}
					}
				}
				JOINT LeftShoulder
				{
					OFFSET 0.000000 0.000000 0.000000
					CHANNELS 3 Zrotation Yrotation Xrotation
					JOINT LeftArm
					{
						OFFSET 2.700000 1.550000 -0.730000
						CHANNELS 3 Zrotation Yrotation Xrotation
						JOINT LeftForeArm
						{
							OFFSET 5.450000 0.000000 0.000000
							CHANNELS 3 Zrotation Yrotation Xrotation
							JOINT LeftHand
							{
								OFFSET 3.450000 0.000000 0.000000
								CHANNELS 3 Zrotation Yrotation Xrotation
								JOINT LeftHandIndex1
								{
									OFFSET 0.750000 0.000000 0.000000
									CHANNELS 3 Zrotation Yrotation Xrotation
									End Site
									{
										OFFSET 0.000000 0.000000 0.000000
									}
								}
							}
						}
					}
				}
				JOINT RightShoulder
				{
					OFFSET 0.000000 0.000000 0.000000
					CHANNELS 3 Zrotation Yrotation Xrotation
					JOINT RightArm
					{
						OFFSET -2.700000 1.550000 -0.730000
						CHANNELS 3 Zrotation Yrotation Xrotation
						JOINT RightForeArm
						{
							OFFSET -5.450000 0.000000 0.000000
							CHANNELS 3 Zrotation Yrotation Xrotation
							JOINT RightHand
							{
								OFFSET -3.450000 0.000000 0.000000
								CHANNELS 3 Zrotation Yrotation Xrotation
								JOINT RightHandIndex1
								{
									OFFSET -0.750000 0.000000 0.000000
									CHANNELS 3 Zrotation Yrotation Xrotation
									End Site
									{
										OFFSET 0.000000 0.000000 0.000000
									}
								}
							}
						}
					}
				}
			}
		}
	}
}
MOTION
Frames: 12
Frame Time: 0.016667
1.159600 17.117200 -2.973910 0.236753 -29.075180 11.097621 -15.558386 11.082141 6.423936 4.351013 -10.605403 -57.638312 -4.959775 8.030876 35.710070 -1.050640 6.746428 2.418203 0.388210 -0.180680 0.205250 18.249954 -9.804103 2.114471 -4.281434 4.721841 -20.840565 4.138174 -7.252409 33.281018 -0.309555 -4.984917 3.104413 0.200900 0.660680 0.029750 -3.189387 -1.688349 -8.402142 5.142256 5.489014 29.676609 0.919897 8.713648 -0.594401 -0.898584 -7.942925 -4.559109 -12.894917 5.110607 19.963971 -8.523140 3.835360 -19.519960 -26.572786 5.235192 -0.943649 -37.157457 9.393890 -10.716694 -45.885933 -84.085306 31.067995 -3.923880 2.975282 0.973040 0.379440 -0.407860 0.327360 26.980557 4.668699 2.274885 47.149528 2.146998 -13.050268 31.935761 50.954471 10.014805 1.323174 -1.504475 -0.811820 0.723880 0.169260 -0.530940 
1.264820 17.030340 -2.947820 0.161213 -27.624920 15.218301 -15.626358 10.417466 6.857498 7.368686 -10.911916 -62.621521 -7.467426 7.948847 31.313125 -1.240515 6.463728 2.547301 0.490330 -0.063660 0.201560 18.305674 -9.642315 1.983009 -4.692312 4.124733 -20.923656 6.566268 -6.798384 25.725451 -0.098849 -4.242862 3.362311 0.367960 0.800010 0.051960 -3.317423 -1.202845 -8.387104 5.164151 5.976618 22.467140 1.011952 8.408534 -0.409494 -1.598706 -7.577249 -3.034939 -11.743719 4.846857 17.260022 -6.850070 2.336520 -15.827240 -27.420122 7.357499 -2.244348 -40.736074 6.586359 -10.875715 0.031290 -89.022247 -7.822632 -3.911592 2.887864 0.868040 0.515170 -0.520940 0.398100 29.038797 1.648072 0.996097 44.711749 0.896272 -11.052713 29.584392 45.542816 8.028415 1.201488 -1.607079 -0.852010 0.785530 0.161060 -0.511420 
1.395580 17.030630 -2.936840 0.240353 -25.476117 16.028562 -15.643670 9.951166 7.232344 10.048435 -11.638031 -65.776875 -8.574571 9.004089 34.895648 -1.089499 7.324892 2.235899 0.518510 -0.011980 0.191220 18.369152 -9.513746 1.889053 -6.053353 3.908007 -20.429841 8.660615 -6.888079 22.308783 -0.043120 -4.107192 3.397545 0.417350 0.828200 0.053530 -3.455974 -0.851004 -8.512331 6.094649 5.548366 20.875456 -0.206108 7.938900 -1.705562 -1.486631 -7.259748 -2.087801 -11.073545 4.396332 17.118745 -6.462870 1.727530 -13.499750 -29.469251 7.856130 -3.955917 -42.055944 4.379697 -12.512608 -111.382569 -89.476081 109.602079 -3.834015 0.240276 0.789970 0.553310 -0.560610 0.420280 30.600366 0.218450 0.633099 42.823654 0.019509 -10.044932 28.480791 43.677470 7.364570 1.198977 -1.688731 -0.836780 0.767580 0.139630 -0.484470 
1.522120 17.062220 -2.904730 0.010121 -23.578656 15.168125 -15.719656 9.753657 7.482484 13.735687 -11.879358 -66.611394 -11.478236 12.180216 42.589108 -0.633498 9.247297 1.555014 0.498300 -0.027130 0.160620 18.344354 -9.271984 1.873075 -8.204800 4.178770 -21.041188 11.784697 -8.457450 24.299359 -0.142958 -4.665778 3.198011 0.361550 0.790730 0.059130 -3.331716 -0.985397 -8.753613 6.010366 5.102754 21.660191 -0.643820 7.709261 -2.382706 -0.797829 -6.859996 -2.332074 -10.518230 3.761219 17.994472 -5.977420 1.408680 -12.561220 -31.334791 7.981341 -3.256122 -45.344036 1.052579 -3.888538 102.022478 -76.473025 -93.204320 -4.348243 -0.384408 0.765870 0.525170 -0.547100 0.422390 31.205253 0.213637 0.597715 42.163216 -0.640359 -10.045479 23.815919 39.665800 5.227977 1.242473 -1.655087 -0.780790 0.697120 0.121970 -0.460810 
1.641490 17.112490 -2.852720 0.265188 -22.722099 12.766322 -15.756015 9.902054 7.372477 15.924788 -11.692474 -63.513518 -14.060533 16.121270 49.736449 0.028998 11.052502 0.967381 0.446740 -0.034100 0.025820 18.293270 -9.059525 1.994927 -11.739961 4.496777 -23.175103 14.500500 -11.256466 30.182717 -0.370732 -5.832718 2.811559 0.236390 0.747680 0.084420 -3.183962 -1.428754 -8.971026 5.105723 4.092556 23.660808 -0.645707 6.808623 -3.547655 -0.583196 -7.734001 -3.181658 -12.741056 5.033963 20.388688 -3.156480 1.340560 -11.180160 -30.385475 7.701132 -2.745736 -50.237891 0.980222 -5.795305 100.955693 -74.505971 -88.886032 -4.092572 -0.228474 0.710860 0.464780 -0.501660 0.452860 30.119796 1.127211 1.217051 42.627545 -0.960269 -9.932261 22.126693 35.384848 4.134463 1.376862 -1.606697 -0.634460 0.572560 0.102250 -0.363330 
1.742300 17.170160 -2.803830 0.744540 -21.808135 10.906937 -15.823366 10.179241 6.878425 16.169376 -11.353932 -57.990057 -14.524271 18.831175 54.195215 0.293713 12.273312 0.636514 0.337770 -0.194330 0.004820 18.216412 -8.713718 2.378422 -15.484471 4.880979 -27.784169 16.379436 -14.659862 37.579234 -0.648071 -7.320228 2.314550 0.154990 0.795190 0.029910 -2.925589 -2.064181 -9.083010 2.818078 3.799680 23.849374 0.901125 6.138239 -2.651240 -0.596387 -7.770082 -4.135591 -13.605887 5.261356 22.698082 -3.129080 1.423590 -10.247680 -27.822346 6.367038 -2.223767 -53.843901 0.521791 -10.705916 87.892104 -81.504344 -80.190650 -3.824160 -1.339260 0.782260 0.461480 -0.525250 0.419860 28.107798 2.344342 1.893888 43.494189 -1.221755 -9.995002 21.067173 30.998276 3.081482 1.407196 -1.425267 -0.727950 0.658070 0.163040 -0.399630 
1.847770 17.220970 -2.759030 0.292901 -20.630050 9.182313 -15.821293 10.413083 6.219273 15.324545 -10.915040 -52.438476 -11.641299 19.607604 59.080459 0.489423 12.850405 0.428257 0.494020 0.019970 0.062650 18.219491 -8.308005 2.981751 -19.065517 5.073665 -32.583783 19.461437 -18.429477 43.258480 -1.073812 -8.825316 1.810504 0.247510 0.697010 0.034450 -2.900971 -2.578818 -9.180342 2.259078 2.517053 24.128730 1.253465 4.513941 -0.666164 -0.680459 -8.186064 -4.625858 -14.918206 6.002830 23.835391 -1.154110 1.101240 -12.886720 -26.299879 5.080318 -1.514294 -54.039869 -0.303711 -15.459697 55.468380 -86.525068 -55.585001 -3.469120 1.336102 0.803350 0.380630 -0.431020 0.473910 26.964014 3.344431 2.106522 43.811368 -0.591371 -10.279029 22.841886 32.108977 3.490519 1.425831 -1.470186 -0.643920 0.636090 0.062750 -0.371470 
1.929620 17.226590 -2.700560 -0.632001 -18.732572 9.664424 -15.829932 10.460535 5.650726 16.070888 -9.804013 -48.663712 -9.134759 19.542679 61.201537 0.454895 13.054823 0.325149 0.656780 0.241060 0.088070 18.266087 -7.939211 3.485207 -21.301265 4.847687 -37.433298 21.989921 -20.587214 44.940312 -1.278370 -9.619759 1.523151 0.414360 0.716640 0.085120 -2.955342 -2.803228 -9.090292 2.192793 1.319705 20.857607 2.282583 2.747574 1.771720 -1.629599 -7.628547 -4.030757 -13.814033 6.259081 22.230218 -0.015690 0.545270 -12.954380 -24.283637 5.619326 -1.230914 -50.177520 -0.876232 -10.198669 -12.262119 -83.607774 2.872095 -3.716814 3.127252 0.744850 0.419710 -0.427920 0.546480 27.012923 1.705088 1.094089 42.549958 -0.656768 -10.180747 26.080048 36.197636 4.907425 1.335959 -1.649754 -0.596370 0.631650 0.002500 -0.329880 
2.016390 17.199590 -2.641870 -1.913656 -17.447764 9.898510 -15.819000 10.790805 5.045328 17.270247 -8.379683 -44.236883 -6.216901 18.163569 60.792403 0.255803 12.760063 0.438127 0.609180 0.180980 0.087300 18.285026 -7.786795 3.805722 -22.712792 4.414054 -40.599662 22.840580 -20.530373 43.842722 -1.181777 -9.533011 1.564391 0.449190 0.820900 0.008030 -2.964869 -3.161872 -8.902623 2.530597 0.230394 17.885992 3.536390 1.278193 4.012797 -2.436023 -7.402726 -4.304340 -13.844516 6.645482 22.441723 -0.041020 0.480690 -11.031670 -20.534120 5.211149 -0.889959 -47.194502 -2.406420 -7.811649 -32.071953 -71.697454 16.119051 -3.883444 3.064998 0.718230 0.484480 -0.520520 0.529610 25.064421 1.322560 1.257090 42.423051 -1.264440 -10.509774 31.965771 40.686375 7.377604 1.272701 -1.670799 -0.704850 0.765380 0.047240 -0.354090 
2.134040 17.175880 -2.550380 -4.063270 -16.661226 10.717978 -15.630020 11.236985 4.111675 18.229093 -6.133266 -37.782497 -3.843203 15.311616 54.903909 -0.237802 11.403225 0.829548 0.733520 0.345490 0.151610 18.426715 -8.006226 4.130394 -23.422776 4.575621 -43.039899 23.675851 -18.277092 38.952964 -0.967152 -8.712292 1.790893 0.616760 0.881170 0.018980 -3.407410 -2.858650 -8.429795 5.897461 -1.365263 14.410548 2.214301 -0.451091 5.971945 -2.744635 -7.023129 -3.989969 -12.814153 7.427108 20.716654 -0.521900 1.016250 -11.342630 -19.917173 4.298223 -1.019489 -39.001517 -1.312606 -5.595727 -46.866130 -59.861258 21.659592 -4.003173 3.083703 0.676210 0.560620 -0.543240 0.581460 25.012474 0.948755 0.923675 40.579395 -1.627038 -10.126407 37.476211 44.809572 10.051175 1.167917 -1.812243 -0.734110 0.844390 0.001940 -0.351820 
2.253330 17.131590 -2.464490 -6.319631 -16.391991 10.223686 -15.408582 12.119364 2.912636 19.088319 -3.522011 -28.009762 -2.794908 11.910146 43.369971 -0.754309 9.091258 1.558487 0.814890 0.464200 0.209690 18.498437 -8.514329 4.372006 -23.276974 5.142489 -43.746719 22.650096 -14.305695 32.230393 -0.663030 -7.249046 2.209675 0.679800 0.840110 0.065190 -3.728266 -2.660374 -7.851887 8.860985 -2.534538 12.291947 1.238866 -1.807408 8.146038 -2.471548 -6.662978 -4.265698 -12.143195 7.514224 21.024901 -1.225840 1.613340 -12.236470 -19.433473 2.551686 -0.553216 -33.431208 -0.168039 -4.518478 -53.357934 -49.357315 20.196059 -4.006749 3.127092 0.648300 0.567370 -0.493700 0.592430 24.038587 1.699533 1.163431 39.055888 -1.306901 -9.897674 44.009231 49.259906 13.793200 1.168198 -1.930597 -0.675740 0.809170 -0.047830 -0.338330 
2.397260 17.074090 -2.414580 -7.790875 -16.605145 10.855198 -15.292680 12.618291 2.110251 19.739510 -2.024757 -19.878678 -3.639123 9.354058 30.772694 -1.069626 6.993882 2.253037 0.994650 0.675800 0.322500 18.533256 -8.719257 4.606400 -23.388471 5.513508 -45.953238 19.917334 -10.191765 24.979551 -0.424838 -5.685240 2.630784 0.766220 0.710690 0.213510 -3.893755 -2.525771 -7.420150 10.638803 -3.425024 9.603451 0.779453 -3.078169 10.218990 -2.058515 -6.072311 -4.549525 -11.029854 8.228612 21.063671 -2.369270 3.152530 -12.811330 -18.982446 1.288352 0.079943 -30.071088 1.331919 -3.864976 -55.896230 -39.915876 16.287286 -3.953411 3.349012 0.595060 0.558440 -0.385890 0.625520 22.981837 2.068544 1.247812 37.762646 -0.391193 -8.871855 54.056927 56.430610 21.284653 1.217779 -2.176249 -0.508730 0.620420 -0.158680 -0.315570 
